# xmcd
#
# Track frame offsets: 
#        150
#        12483
#        23680
#        36260
#        45674
#        53200
#        64338
#        73125
#        78032
#        91375
#
# Disc length: 1369 seconds
#
# Revision: 0
# Processed by: cddbd v1.5.1PL2 Copyright (c) Steve Scherf et al.
# Submitted via: ExactAudioCopy v0.95a5
#
DISCID=7f05570a
DTITLE=Merle Haggard - Merle Haggard
DYEAR=2004
DGENRE=Country
TTITLE0=Okie From Muskogee
TTITLE1=Momma Tried
TTITLE2=Workin Man Blues
TTITLE3=Today I Started Loving You Again
TTITLE4=I'm A Lonesome Fugitive
TTITLE5=Silver Wings
TTITLE6=Hobo Bill
TTITLE7=Swinging Doors
TTITLE8=Blue Yodel
TTITLE9=Soldier's Letter
EXTD=
EXTT0=
EXTT1=
EXTT2=
EXTT3=
EXTT4=
EXTT5=
EXTT6=
EXTT7=
EXTT8=
EXTT9=
PLAYORDER=
